<?xml version="1.0" encoding="utf-8"?>
<!-- Generator: Adobe Illustrator 25.0.1, SVG Export Plug-In . SVG Version: 6.00 Build 0)  -->
<svg version="1.1" id="Layer_1" xmlns="http://www.w3.org/2000/svg" xmlns:xlink="http://www.w3.org/1999/xlink" x="0px" y="0px"
	 viewBox="0 0 739.8 169.5" style="enable-background:new 0 0 739.8 169.5;" xml:space="preserve">
<style type="text/css">
	.st0{fill:#FFFFFF;}
</style>
<path class="st0" d="M601.9,169.4c-1.2,0-2,0-2.9,0c-12,0-24,0-36.1,0c-1.9,0-2.8-0.5-3.4-2.4c-8.2-26.5-16.5-53-24.8-79.5
	c-5.8-18.4-11.5-36.8-17.3-55.2c-0.2-0.7-0.5-1.4-1.1-2.7c-0.8,2.2-1.3,3.8-1.9,5.5c-13.8,43.9-27.6,87.8-41.4,131.7
	c-0.6,1.8-1.2,2.5-3.3,2.5c-11.9-0.1-23.9,0-35.8-0.1c-0.6,0-1.2-0.1-2.1-0.1c0.7-2.1,1.3-4.1,1.9-6.1c8.9-26,17.8-52,26.6-78
	c9.4-27.7,18.9-55.4,28.3-83.1c0.5-1.4,1.1-1.8,2.5-1.8c16.9,0,33.9,0,50.8,0c1.5,0,2.2,0.6,2.7,2c13.8,40.6,27.7,81.2,41.5,121.8
	c4.9,14.2,9.8,28.5,14.6,42.7C601.2,167.3,601.5,168.1,601.9,169.4z"/>
<path class="st0" d="M191.1,110.2c-14.7,0-29.2,0-43.9,0c0,11.3,0,22.3,0,33.7c17.7,0,35.2,0,53,0c0,7.9,0,15.4,0,23.2
	c-18.6,0-37.1,0-55.8,0c-0.1-0.9-0.1-1.8-0.1-2.7c0-16.6,0.1-33.2-0.1-49.8c-0.1-7.9-2-15.6-6.9-21.9c-10.5-13.8-31.3-14-43.3-0.6
	c-1.2,1.3-2.5,2.5-3.8,3.8c-0.3-0.1-0.5-0.3-0.8-0.4c-0.1-0.9-0.1-1.7-0.1-2.6c0-8.5-0.1-16.9,0.1-25.4c0-2-0.6-2.8-2.5-2.9
	c-5.8-0.1-11.6-0.3-17.4-0.5c-1.6,0-2.2,0.6-2.2,2.3c0,25.6,0,51.1,0,76.7c0,1.4,0.4,2,1.9,2c6.6,0,13.2,0,20.1,0
	c0-0.9,0.1-1.8,0.1-2.7c0-8.8,0-17.6,0-26.4c0.1-8.4,6.4-15.3,14.7-16c8.2-0.8,15.6,4.7,17.4,12.8c0.2,0.9,0.2,1.9,0.2,2.8
	c0,16.8,0,33.5,0,50.3c0,0.5-0.1,1-0.1,1.8c-1.2,0-2.4,0-3.6,0c-19.2,0-38.4,0.4-57.7-0.1c-20.8-0.5-38.1-8.6-50.2-26.1
	c-7.3-10.6-10.3-22.5-9.8-35.3c1-26.2,13-45.5,36.6-57.4C47.4,43.3,59,41,71,40.9c7.3-0.1,14.6,1,22,1.6c0.4,0,0.8,0.1,1.6,0.1
	c0-2.5,0-5,0-7.5c3.9,0,7.4,0,11.1,0c0,12.1,0,24.1,0,35.8c-4.5-1.9-9.1-3.8-13.8-5.7c0,8.8,0,16.8,0,25.6c4.2-4.4,8.2-8.1,13.5-9.3
	c5.1-1.1,10.3-1.6,15.8-2.4c0-14.2,0-29,0-44.1c1.2,0,2.1-0.1,3-0.1c22,0,44,0,66.1,0c5.3,0,5.3,0,5.3,5.2c0,5.8,0,11.7,0,17.9
	c-1.2,0-2.2,0-3.2,0c-14.1,0-28.1,0.1-42.2,0c-2.2,0-2.7,0.7-2.7,2.7c0.1,9.3,0,18.6,0,28.3c14.6,0,29,0,43.6,0
	C191.1,96.2,191.1,103,191.1,110.2z M64.1,144.3c0-26.5,0-52.8,0-79.1C44.8,68.6,30.1,82,31,108.1C31.7,126.1,47.9,144.2,64.1,144.3
	z M119.1,145c0.1-0.7,0.2-1.3,0.2-1.9c0-9.4,0-18.8-0.1-28.1c0-1.1-0.2-2.2-0.5-3.2c-2.1-6.7-8.6-10.6-15.7-9.5
	c-6.6,1-11.5,6.8-11.5,13.7c0,8.9,0,17.7,0,26.6c0,0.8,0.1,1.6,0.1,2.4C101,145,110,145,119.1,145z"/>
<path class="st0" d="M247,96.6c0,23.3,0,46.5,0,70c-9.8,0-19.4,0-29.2,0c0-0.9-0.1-1.8-0.1-2.7c0-42,0-84-0.1-126
	c0-2.1,0.5-3,2.8-2.9c19,0.2,37.9,0,56.9,0.4c7.3,0.2,14.3,2.3,20.9,5.8c11.6,6.2,18.1,19.3,16.4,32.9c-2.2,17-12.3,27.2-28,32.6
	c-0.8,0.3-1.6,0.5-2.8,0.8c15.6,20,31,39.7,46.6,59.7c-0.9,0.1-1.5,0.2-2.1,0.2c-9.8,0-19.6,0-29.5,0.1c-1.7,0-2.7-0.5-3.7-2
	c-15.2-22.3-30.5-44.5-45.7-66.8c-0.5-0.7-1.1-1.5-1.6-2.2C247.4,96.5,247.2,96.6,247,96.6z M246.7,74.8c0,5.7,0,11.3,0,17
	c0,1.1,0,2.2,1.5,2.4c8.5,0.8,16.9,1.2,24.9-2.8c7.2-3.6,10.8-9.6,10.6-17.6c-0.2-7.7-4.4-12.7-11.3-15.7
	c-7.7-3.3-15.8-3.1-23.9-2.5c-1.7,0.1-1.8,1.2-1.8,2.5C246.7,63.6,246.7,69.2,246.7,74.8z"/>
<path class="st0" d="M736.4,91.7c0,7.1,0,13.9,0,21c-14.8,0-29.6,0-44.7,0c0,1.2,0,2.1,0,3c0,9.2,0.1,18.5,0,27.7c0,2.3,0.5,3,2.9,3
	c14-0.1,28.1,0,42.2,0c0.9,0,1.8,0,3,0c0,7.6,0,15.1,0,22.8c-26,0-52,0-78.2,0c0-44.6,0-89.2,0-134c26.1,0,52,0,78.2,0
	c0,7.5,0,15,0,22.9c-0.9,0-1.9,0-2.9,0c-14.1,0-28.3,0-42.4,0c-2.2,0-2.9,0.6-2.8,2.9c0.1,9.4,0.1,18.8,0,28.2
	c0,2.2,0.7,2.7,2.7,2.7c13.1-0.1,26.2,0,39.4,0C734.6,91.7,735.4,91.7,736.4,91.7z"/>
<path class="st0" d="M424.8,68.8c-14-9.2-29-10.7-44.7-6.7c-4.8,1.2-8.9,3.7-10.7,8.9c-1.3,3.7-0.5,6.8,2.2,9.5
	c4.8,4.7,10.8,7.1,16.8,9.7c8.3,3.6,16.8,6.9,24.7,11.1c12.4,6.5,18.8,17.1,17.6,31.2c-1.1,14.3-8.9,24.2-22.1,29.7
	c-11.2,4.7-23.2,5.4-35.2,5.5c-10.3,0.1-20.6-0.3-31-0.4c-1.5,0-2.2-0.4-2.2-2c0-8.5,0-16.9,0-25.4c0-0.2,0.1-0.5,0.2-0.7
	c5.6,1.7,11.1,3.5,16.8,4.9c8.9,2.2,18,3.5,27.2,1.9c2.9-0.5,6-1.5,8.6-3c7.1-4,8.1-12.1,2.6-18c-3.7-4-8.4-6.5-13.5-8.4
	c-9.3-3.5-18.6-6.8-27-12.2c-6.8-4.3-12.7-9.5-15.8-17.3c-4.8-12.1-1.3-31.9,15.6-40.5c12.3-6.3,25.4-9.4,39.2-8.6
	c6.6,0.4,13.3,1.2,20.2,1.9c0.1-1.4,0.2-2.9,0.3-4.8c3.3,0,6.5,0,9.9,0C424.8,46.4,424.8,57.5,424.8,68.8z"/>
<path class="st0" d="M612.2,169.3c0-1-0.1-1.9-0.1-2.7c0-42.7,0-85.5-0.1-128.2c0-2.7,0.7-3.5,3.4-3.4c8.2,0.2,16.4,0.1,24.6,0.1
	c0.7,0,1.3,0.1,2.4,0.2c0,1.2,0,2.4,0,3.5c0,42.7,0,85.3,0,128c0,2.1-0.6,2.7-2.7,2.7c-8.3-0.1-16.6,0-24.9-0.1
	C613.9,169.4,613.1,169.3,612.2,169.3z"/>
</svg>
